
<svg width="1200" height="800" viewBox="0 0 1200 800" xmlns="http://www.w3.org/2000/svg" preserveAspectRatio="xMidYMid slice">
    
    <defs>
        <filter id="noise-media-potustoronniy-deck" x="0%" y="0%" width="100%" height="100%">
            <feTurbulence type="fractalNoise" baseFrequency="0.8899883990082782" numOctaves="4" result="noise"/>
            <feColorMatrix type="matrix" values="1 0 0 0 0  0 1 0 0 0  0 0 1 0 0  0 0 0 0.1 0" in="noise" result="coloredNoise"/>
            <feComposite operator="in" in="coloredNoise" in2="SourceGraphic" result="composite"/>
        </filter>
        <linearGradient id="grad-media-potustoronniy-deck" x1="0%" y1="0%" x2="100%" y2="100%">
            <stop offset="0%" stop-color="#0038A8" stop-opacity="0.2" />
            <stop offset="50%" stop-color="#121212" stop-opacity="0" />
            <stop offset="100%" stop-color="#FF0055" stop-opacity="0.3" />
        </linearGradient>
        <pattern id="grid-media-potustoronniy-deck" width="50" height="50" patternUnits="userSpaceOnUse">
             <path d="M 50 0 L 0 0 0 50" fill="none" stroke="#00FF99" stroke-width="0.5" stroke-opacity="0.2"/>
             
        </pattern>
    </defs>
    
    <rect width="100%" height="100%" fill="#121212" />
    <rect width="100%" height="100%" fill="url(#grad-media-potustoronniy-deck)" />
    <rect width="100%" height="100%" fill="url(#grid-media-potustoronniy-deck)" />
    <circle cx="29.649366279737432%" cy="16.899614098388344%" r="3.7304796154894673%" fill="none" stroke="#00FF99" stroke-width="3.0090696606869525" opacity="0.23606103960057817" />
    <circle cx="7.610543079311534%" cy="10.398257021231816%" r="13.725872949441776%" fill="#00FF99" opacity="0.04947127373839847" />
    <circle cx="72.95108584030633%" cy="88.89992971802124%" r="21.313750639850042%" fill="#00FF99" opacity="0.17427984242726102" />
    
                <g stroke="#00FF99" stroke-width="2" opacity="0.3151109797089463">
                    <line x1="703.3431118664732" y1="8.728001647375526" x2="777.6128098812073" y2="8.728001647375526" />
                    <line x1="740.4779608738403" y1="-28.406847359991488" x2="740.4779608738403" y2="45.862850654742545" />
                </g>
            
    <rect x="16.235851744409512%" y="75.96092384863731%" width="32.99884542263936%" height="19.595073083969833%" fill="none" stroke="#FFFFFF" stroke-width="1.3816629092969586" opacity="0.28553563466811144" />
    <rect x="37.405957688955546%" y="81.93136815161571%" width="10.327710315890341%" height="11.827511382128588%" fill="#FFFFFF" opacity="0.17823896094061337" />
    <circle cx="7.840366249755366%" cy="73.03628090120505%" r="9.915661745626164%" fill="#0038A8" opacity="0.03318165712354859" />
    
                <g stroke="#FF0055" stroke-width="2" opacity="0.40365333883432053">
                    <line x1="963.248979741008" y1="447.84912024424324" x2="1043.4234510487165" y2="447.84912024424324" />
                    <line x1="1003.3362153948623" y1="407.76188459038906" x2="1003.3362153948623" y2="487.9363558980974" />
                </g>
            
    <line x1="71.40415750574708%" y1="89.67542288794688%" x2="55.728623108685596%" y2="70.96909066752447%" stroke="#00FF99" stroke-width="3.2674674282478797" opacity="0.3637727388774722" />
    <rect x="99.22363534497435%" y="51.63924903761525%" width="15.845165421110732%" height="23.69542164513415%" fill="#00FF99" opacity="0.14604912651334806" />
    
                <g stroke="#FFFFFF" stroke-width="2" opacity="0.13929847482526533">
                    <line x1="955.2493147787166" y1="713.7873246462898" x2="1002.6337909816148" y2="713.7873246462898" />
                    <line x1="978.9415528801657" y1="690.0950865448407" x2="978.9415528801657" y2="737.4795627477389" />
                </g>
            
    <rect x="34.78573955109878%" y="43.92514568187776%" width="29.065749379867455%" height="36.04991300594985%" fill="#0038A8" opacity="0.160460186573174" />
    <circle cx="36.67063562820725%" cy="23.37349888251489%" r="7.460534925070158%" fill="none" stroke="#0038A8" stroke-width="1.742436461842094" opacity="0.644322010077836" />
    <rect x="19.825378078804704%" y="5.1299979026708735%" width="20.014060700325352%" height="18.318346775433373%" fill="#00FF99" opacity="0.3211762644082087" />
    <circle cx="10.950788167259459%" cy="49.89742403840406%" r="21.71131722695317%" fill="#00FF99" opacity="0.19793120195896474" />
    
                <g stroke="#00FF99" stroke-width="2" opacity="0.32555062167863413">
                    <line x1="25.131678204174776" y1="626.7083132888268" x2="92.0742542688495" y2="626.7083132888268" />
                    <line x1="58.60296623651214" y1="593.2370252564895" x2="58.60296623651214" y2="660.1796013211642" />
                </g>
            
    <rect x="50.30719419038593%" y="13.013146690105224%" width="25.941161827129463%" height="37.10693859318917%" fill="#0038A8" opacity="0.1367406985133334" />
    
                <g stroke="#FFFFFF" stroke-width="2" opacity="0.42343193834967163">
                    <line x1="991.2464140925988" y1="475.0070486916295" x2="1091.113615577215" y2="475.0070486916295" />
                    <line x1="1041.1800148349068" y1="425.07344794932146" x2="1041.1800148349068" y2="524.9406494339376" />
                </g>
            
    <rect x="80.67715305898074%" y="40.91161348941886%" width="7.771328854161621%" height="24.724304120730892%" fill="#0038A8" opacity="0.3478188868591738" />
    <circle cx="86.058952320422%" cy="92.81175843701863%" r="19.136850377672214%" fill="none" stroke="#0038A8" stroke-width="2.9099910011608072" opacity="0.30815828825175606" />
    <circle cx="31.011341354820267%" cy="7.614690351872416%" r="16.685252260123615%" fill="none" stroke="#FFFFFF" stroke-width="1.362491785420563" opacity="0.15730862520384475" />
    
                <g stroke="#00FF99" stroke-width="2" opacity="0.5134983847974784">
                    <line x1="912.3722344472745" y1="308.3967338394343" x2="957.0467687091294" y2="308.3967338394343" />
                    <line x1="934.709501578202" y1="286.0594667085069" x2="934.709501578202" y2="330.73400097036176" />
                </g>
            
    
                <g stroke="#FF0055" stroke-width="2" opacity="0.5728300823577028">
                    <line x1="861.1794547468232" y1="620.5470269737272" x2="959.601269745828" y2="620.5470269737272" />
                    <line x1="910.3903622463256" y1="571.3361194742248" x2="910.3903622463256" y2="669.7579344732295" />
                </g>
            
    <circle cx="66.05343084414808%" cy="60.01246325672833%" r="2.6338143028633803%" fill="none" stroke="#0038A8" stroke-width="1.1203866657990837" opacity="0.6558991087189867" />
    <circle cx="76.91027114811378%" cy="30.927367024987344%" r="3.492004299994562%" fill="none" stroke="#FFFFFF" stroke-width="2.247393600407423" opacity="0.5445922211227866" />
    <rect x="18.497024447188736%" y="79.49052176390823%" width="13.817113935777092%" height="24.23412351518322%" fill="#FF0055" opacity="0.15851166118729082" />
    <rect x="60.11488499130577%" y="50.87236100889031%" width="20.873202474669743%" height="17.914141457447915%" fill="#00FF99" opacity="0.30815317096016664" />
    <circle cx="96.09472406664372%" cy="64.02741862836054%" r="6.9052322189372335%" fill="none" stroke="#FFFFFF" stroke-width="1.9784079016916527" opacity="0.6551244462422322" />
    <rect x="87.84947743439066%" y="86.16733489201155%" width="32.82061118336452%" height="26.012214989412776%" fill="#00FF99" opacity="0.21312628948420875" />
    <rect x="36.62959540880247%" y="33.610531672472625%" width="6.535990160457781%" height="10.386888701829024%" fill="#0038A8" opacity="0.10344855636679434" />
    <circle cx="53.83049878648529%" cy="29.19346576481449%" r="5.896644023150806%" fill="none" stroke="#00FF99" stroke-width="3.7770873389924757" opacity="0.5231643351941968" />
    <rect x="45.16580388431046%" y="1.6663127128652415%" width="6.3369667104789675%" height="9.399766465089998%" fill="#FFFFFF" opacity="0.2011950673080935" />
    <rect x="18.22842500938887%" y="65.13977275708669%" width="14.89982837336122%" height="19.41566751563518%" fill="#0038A8" opacity="0.30662846938392935" />
    <rect x="30.304691782504968%" y="30.955333990003293%" width="34.598804050682865%" height="6.099722082819531%" fill="#FF0055" opacity="0.23001968900674924" />
    
                <g stroke="#FFFFFF" stroke-width="2" opacity="0.5197475984876487">
                    <line x1="974.1908648835409" y1="564.88080412604" x2="1017.3659054631049" y2="564.88080412604" />
                    <line x1="995.7783851733229" y1="543.293283836258" x2="995.7783851733229" y2="586.4683244158219" />
                </g>
            
    
                <g stroke="#FF0055" stroke-width="2" opacity="0.48358517138621315">
                    <line x1="984.6908668379214" y1="304.659969270844" x2="1079.2178603161292" y2="304.659969270844" />
                    <line x1="1031.9543635770253" y1="257.3964725317401" x2="1031.9543635770253" y2="351.9234660099479" />
                </g>
            
    <rect x="73.34796401983868%" y="59.23148999850405%" width="36.70579490410704%" height="2.294979091077092%" fill="#FF0055" opacity="0.24507467383060105" />
    <circle cx="27.243642906885263%" cy="83.9069054312137%" r="2.588414193679033%" fill="none" stroke="#00FF99" stroke-width="3.227823687929496" opacity="0.4835641970704907" />
    <rect x="64.08289611719819%" y="41.23532282303583%" width="36.1096379236408%" height="14.684613066431707%" fill="#0038A8" opacity="0.2933386236832837" />
    <rect x="22.069491326873646%" y="21.94134064199528%" width="29.173457754006105%" height="22.304556304872555%" fill="#FF0055" opacity="0.3308690550558912" />
    <rect x="72.42116916218882%" y="82.59032474140668%" width="20.471701007775685%" height="33.87899051874782%" fill="#FF0055" opacity="0.23240121750384685" />
    
                <g stroke="#00FF99" stroke-width="2" opacity="0.505634693899783">
                    <line x1="573.9032395779185" y1="783.9284963756133" x2="635.3043391791213" y2="783.9284963756133" />
                    <line x1="604.6037893785199" y1="753.227946575012" x2="604.6037893785199" y2="814.6290461762147" />
                </g>
            
    
                <g stroke="#FF0055" stroke-width="2" opacity="0.3950307018077287">
                    <line x1="325.30295699397374" y1="261.1971984256033" x2="398.72771941938225" y2="261.1971984256033" />
                    <line x1="362.015338206678" y1="224.48481721289906" x2="362.015338206678" y2="297.90957963830755" />
                </g>
            
    
                <g stroke="#0038A8" stroke-width="2" opacity="0.3225783532695643">
                    <line x1="909.8363489469851" y1="281.96713727150774" x2="987.7090724536303" y2="281.96713727150774" />
                    <line x1="948.7727107003077" y1="243.0307755181852" x2="948.7727107003077" y2="320.90349902483024" />
                </g>
            
    <rect x="99.00779155921917%" y="23.952743526504136%" width="2.7164830963280826%" height="35.93169177876011%" fill="#FFFFFF" opacity="0.34807205470099306" />
    <rect x="32.248670405008525%" y="3.4040271801911546%" width="16.45264825732694%" height="11.659445170927276%" fill="#FF0055" opacity="0.21236667727340636" />
    <circle cx="78.95313690319018%" cy="65.37209662177796%" r="19.106479289109334%" fill="#00FF99" opacity="0.048482900837886055" />
    <line x1="69.45797984437829%" y1="80.26748348983702%" x2="84.65424854741828%" y2="83.95561307105758%" stroke="#0038A8" stroke-width="1.6393999221170321" opacity="0.18049126815096594" />
    <circle cx="93.9051077178727%" cy="63.14546197014438%" r="24.540239009578002%" fill="none" stroke="#FF0055" stroke-width="1.476316984255162" opacity="0.2258025481605926" />
    <circle cx="99.90984220049329%" cy="84.71786438926856%" r="10.628091117020782%" fill="none" stroke="#FF0055" stroke-width="2.6956978032325374" opacity="0.3359373746774508" />
    
                <g stroke="#FFFFFF" stroke-width="2" opacity="0.5373508256276611">
                    <line x1="1080.813341933129" y1="521.2315687176134" x2="1140.4970461972964" y2="521.2315687176134" />
                    <line x1="1110.6551940652128" y1="491.3897165855297" x2="1110.6551940652128" y2="551.0734208496971" />
                </g>
            
    <rect x="74.28791515928499%" y="56.99028331506092%" width="30.750717530726195%" height="7.309611288187663%" fill="#FF0055" opacity="0.24359331605359286" />
    
                <g stroke="#FF0055" stroke-width="2" opacity="0.44324895380367424">
                    <line x1="1128.215651864387" y1="437.93980333762227" x2="1212.45869923612" y2="437.93980333762227" />
                    <line x1="1170.3371755502535" y1="395.81827965175574" x2="1170.3371755502535" y2="480.0613270234888" />
                </g>
            
    <circle cx="8.261201212425902%" cy="46.00949519873549%" r="5.7349373407055975%" fill="#FF0055" opacity="0.2086300273785647" />
    <rect x="3.1480017147474006%" y="8.465577716441432%" width="34.45993450140575%" height="28.119208479411164%" fill="#00FF99" opacity="0.2698910836781292" />
    <rect x="68.83086596506729%" y="40.36451879922722%" width="4.440058886483366%" height="10.069983417233436%" fill="#FFFFFF" opacity="0.13861822401044724" />
    <circle cx="11.98532400837664%" cy="37.34129759235428%" r="11.470087366616436%" fill="none" stroke="#0038A8" stroke-width="3.2145533093386827" opacity="0.1109996969914061" />
    <circle cx="23.20976157040313%" cy="86.46331474786933%" r="16.492083254728545%" fill="#00FF99" opacity="0.18925755800610178" />
    <rect x="35.71304579797484%" y="29.161229663678657%" width="9.490480402010009%" height="38.50435536029223%" fill="#0038A8" opacity="0.08568793580465758" />
    <rect x="16.843519189249275%" y="89.02766452080353%" width="3.841373042055753%" height="17.957000811544248%" fill="#FF0055" opacity="0.0988219508890267" />
    <rect x="95.39160183201693%" y="46.65202675075459%" width="32.32070848468757%" height="22.147562236662548%" fill="none" stroke="#FFFFFF" stroke-width="1.7311852571844917" opacity="0.6706534390064454" />
    <circle cx="23.445305808862024%" cy="45.25532866386261%" r="10.624581480049137%" fill="none" stroke="#FFFFFF" stroke-width="3.4985724571147676" opacity="0.6716987369318481" />
    
                <g stroke="#00FF99" stroke-width="2" opacity="0.16238970222174162">
                    <line x1="745.833032853746" y1="721.1178499470632" x2="789.08476013605" y2="721.1178499470632" />
                    <line x1="767.458896494898" y1="699.4919863059112" x2="767.458896494898" y2="742.7437135882152" />
                </g>
            
    
                <g stroke="#0038A8" stroke-width="2" opacity="0.5116455695700325">
                    <line x1="1032.2991378626778" y1="518.4232966214635" x2="1076.0578126702997" y2="518.4232966214635" />
                    <line x1="1054.1784752664887" y1="496.54395921765257" x2="1054.1784752664887" y2="540.3026340252744" />
                </g>
            
    <circle cx="25.058184773715386%" cy="52.91207833486803%" r="3.146366173537789%" fill="none" stroke="#FFFFFF" stroke-width="1.2737303532415352" opacity="0.20100257899705562" />
    <circle cx="89.25846008514841%" cy="66.93873514136182%" r="20.47600841845945%" fill="#00FF99" opacity="0.07378060713762474" />
    <circle cx="11.353631654152304%" cy="20.487905079953283%" r="24.857683341817637%" fill="none" stroke="#00FF99" stroke-width="1.3202260861361643" opacity="0.12477944411782496" />
    <rect x="63.16851117943275%" y="73.16768097054928%" width="3.6864153646737483%" height="35.5833182731488%" fill="#0038A8" opacity="0.1570202596550996" />
    <rect x="62.354683840977664%" y="95.17160993551053%" width="7.661745221039043%" height="6.952183078929952%" fill="#0038A8" opacity="0.07967734050906947" />
    <rect x="8.435388196665224%" y="73.5701379585733%" width="18.069771301997612%" height="20.646444298929016%" fill="none" stroke="#00FF99" stroke-width="1.6763330788131179" opacity="0.16322666794362167" />
    <circle cx="63.98473755827615%" cy="91.48442381199861%" r="24.288629788242865%" fill="#00FF99" opacity="0.09377314045445355" />
    <circle cx="52.38194959460007%" cy="83.42720911225976%" r="17.68974189524515%" fill="#0038A8" opacity="0.19324473656084826" />
    <rect x="40.1656838042342%" y="64.64816603311166%" width="2.8537317364045713%" height="24.669584464905395%" fill="#00FF99" opacity="0.10914324359888514" />
    
                <g stroke="#FFFFFF" stroke-width="2" opacity="0.34055564714647424">
                    <line x1="399.671154124356" y1="764.4492879178835" x2="475.3864609127738" y2="764.4492879178835" />
                    <line x1="437.5288075185649" y1="726.5916345236745" x2="437.5288075185649" y2="802.3069413120924" />
                </g>
            
    <rect x="7.393292670504463%" y="59.07063792373113%" width="25.361849795432622%" height="28.60962639433297%" fill="none" stroke="#00FF99" stroke-width="2.4228653902400894" opacity="0.1434488222407632" />
    <rect x="28.468700804252826%" y="73.45497689531648%" width="37.06846869277625%" height="17.75334242335832%" fill="#00FF99" opacity="0.3167510802547923" />
    <rect x="78.32732757397677%" y="47.39470542165889%" width="10.430044997884004%" height="21.766510853326423%" fill="#0038A8" opacity="0.08467810911562118" />
    <rect x="0" y="0" width="100%" height="1" fill="#000" opacity="0.1" />
    <rect x="0" y="4" width="100%" height="1" fill="#000" opacity="0.1" />
    <rect x="0" y="8" width="100%" height="1" fill="#000" opacity="0.1" />
    <rect x="0" y="12" width="100%" height="1" fill="#000" opacity="0.1" />
    <rect x="0" y="16" width="100%" height="1" fill="#000" opacity="0.1" />
    <rect x="0" y="20" width="100%" height="1" fill="#000" opacity="0.1" />
    <rect x="0" y="24" width="100%" height="1" fill="#000" opacity="0.1" />
    <rect x="0" y="28" width="100%" height="1" fill="#000" opacity="0.1" />
    <rect x="0" y="32" width="100%" height="1" fill="#000" opacity="0.1" />
    <rect x="0" y="36" width="100%" height="1" fill="#000" opacity="0.1" />
    <rect x="0" y="40" width="100%" height="1" fill="#000" opacity="0.1" />
    <rect x="0" y="44" width="100%" height="1" fill="#000" opacity="0.1" />
    <rect x="0" y="48" width="100%" height="1" fill="#000" opacity="0.1" />
    <rect x="0" y="52" width="100%" height="1" fill="#000" opacity="0.1" />
    <rect x="0" y="56" width="100%" height="1" fill="#000" opacity="0.1" />
    <rect x="0" y="60" width="100%" height="1" fill="#000" opacity="0.1" />
    <rect x="0" y="64" width="100%" height="1" fill="#000" opacity="0.1" />
    <rect x="0" y="68" width="100%" height="1" fill="#000" opacity="0.1" />
    <rect x="0" y="72" width="100%" height="1" fill="#000" opacity="0.1" />
    <rect x="0" y="76" width="100%" height="1" fill="#000" opacity="0.1" />
    <rect x="0" y="80" width="100%" height="1" fill="#000" opacity="0.1" />
    <rect x="0" y="84" width="100%" height="1" fill="#000" opacity="0.1" />
    <rect x="0" y="88" width="100%" height="1" fill="#000" opacity="0.1" />
    <rect x="0" y="92" width="100%" height="1" fill="#000" opacity="0.1" />
    <rect x="0" y="96" width="100%" height="1" fill="#000" opacity="0.1" />
    <rect x="0" y="100" width="100%" height="1" fill="#000" opacity="0.1" />
    <rect x="0" y="104" width="100%" height="1" fill="#000" opacity="0.1" />
    <rect x="0" y="108" width="100%" height="1" fill="#000" opacity="0.1" />
    <rect x="0" y="112" width="100%" height="1" fill="#000" opacity="0.1" />
    <rect x="0" y="116" width="100%" height="1" fill="#000" opacity="0.1" />
    <rect x="0" y="120" width="100%" height="1" fill="#000" opacity="0.1" />
    <rect x="0" y="124" width="100%" height="1" fill="#000" opacity="0.1" />
    <rect x="0" y="128" width="100%" height="1" fill="#000" opacity="0.1" />
    <rect x="0" y="132" width="100%" height="1" fill="#000" opacity="0.1" />
    <rect x="0" y="136" width="100%" height="1" fill="#000" opacity="0.1" />
    <rect x="0" y="140" width="100%" height="1" fill="#000" opacity="0.1" />
    <rect x="0" y="144" width="100%" height="1" fill="#000" opacity="0.1" />
    <rect x="0" y="148" width="100%" height="1" fill="#000" opacity="0.1" />
    <rect x="0" y="152" width="100%" height="1" fill="#000" opacity="0.1" />
    <rect x="0" y="156" width="100%" height="1" fill="#000" opacity="0.1" />
    <rect x="0" y="160" width="100%" height="1" fill="#000" opacity="0.1" />
    <rect x="0" y="164" width="100%" height="1" fill="#000" opacity="0.1" />
    <rect x="0" y="168" width="100%" height="1" fill="#000" opacity="0.1" />
    <rect x="0" y="172" width="100%" height="1" fill="#000" opacity="0.1" />
    <rect x="0" y="176" width="100%" height="1" fill="#000" opacity="0.1" />
    <rect x="0" y="180" width="100%" height="1" fill="#000" opacity="0.1" />
    <rect x="0" y="184" width="100%" height="1" fill="#000" opacity="0.1" />
    <rect x="0" y="188" width="100%" height="1" fill="#000" opacity="0.1" />
    <rect x="0" y="192" width="100%" height="1" fill="#000" opacity="0.1" />
    <rect x="0" y="196" width="100%" height="1" fill="#000" opacity="0.1" />
    <rect x="0" y="200" width="100%" height="1" fill="#000" opacity="0.1" />
    <rect x="0" y="204" width="100%" height="1" fill="#000" opacity="0.1" />
    <rect x="0" y="208" width="100%" height="1" fill="#000" opacity="0.1" />
    <rect x="0" y="212" width="100%" height="1" fill="#000" opacity="0.1" />
    <rect x="0" y="216" width="100%" height="1" fill="#000" opacity="0.1" />
    <rect x="0" y="220" width="100%" height="1" fill="#000" opacity="0.1" />
    <rect x="0" y="224" width="100%" height="1" fill="#000" opacity="0.1" />
    <rect x="0" y="228" width="100%" height="1" fill="#000" opacity="0.1" />
    <rect x="0" y="232" width="100%" height="1" fill="#000" opacity="0.1" />
    <rect x="0" y="236" width="100%" height="1" fill="#000" opacity="0.1" />
    <rect x="0" y="240" width="100%" height="1" fill="#000" opacity="0.1" />
    <rect x="0" y="244" width="100%" height="1" fill="#000" opacity="0.1" />
    <rect x="0" y="248" width="100%" height="1" fill="#000" opacity="0.1" />
    <rect x="0" y="252" width="100%" height="1" fill="#000" opacity="0.1" />
    <rect x="0" y="256" width="100%" height="1" fill="#000" opacity="0.1" />
    <rect x="0" y="260" width="100%" height="1" fill="#000" opacity="0.1" />
    <rect x="0" y="264" width="100%" height="1" fill="#000" opacity="0.1" />
    <rect x="0" y="268" width="100%" height="1" fill="#000" opacity="0.1" />
    <rect x="0" y="272" width="100%" height="1" fill="#000" opacity="0.1" />
    <rect x="0" y="276" width="100%" height="1" fill="#000" opacity="0.1" />
    <rect x="0" y="280" width="100%" height="1" fill="#000" opacity="0.1" />
    <rect x="0" y="284" width="100%" height="1" fill="#000" opacity="0.1" />
    <rect x="0" y="288" width="100%" height="1" fill="#000" opacity="0.1" />
    <rect x="0" y="292" width="100%" height="1" fill="#000" opacity="0.1" />
    <rect x="0" y="296" width="100%" height="1" fill="#000" opacity="0.1" />
    <rect x="0" y="300" width="100%" height="1" fill="#000" opacity="0.1" />
    <rect x="0" y="304" width="100%" height="1" fill="#000" opacity="0.1" />
    <rect x="0" y="308" width="100%" height="1" fill="#000" opacity="0.1" />
    <rect x="0" y="312" width="100%" height="1" fill="#000" opacity="0.1" />
    <rect x="0" y="316" width="100%" height="1" fill="#000" opacity="0.1" />
    <rect x="0" y="320" width="100%" height="1" fill="#000" opacity="0.1" />
    <rect x="0" y="324" width="100%" height="1" fill="#000" opacity="0.1" />
    <rect x="0" y="328" width="100%" height="1" fill="#000" opacity="0.1" />
    <rect x="0" y="332" width="100%" height="1" fill="#000" opacity="0.1" />
    <rect x="0" y="336" width="100%" height="1" fill="#000" opacity="0.1" />
    <rect x="0" y="340" width="100%" height="1" fill="#000" opacity="0.1" />
    <rect x="0" y="344" width="100%" height="1" fill="#000" opacity="0.1" />
    <rect x="0" y="348" width="100%" height="1" fill="#000" opacity="0.1" />
    <rect x="0" y="352" width="100%" height="1" fill="#000" opacity="0.1" />
    <rect x="0" y="356" width="100%" height="1" fill="#000" opacity="0.1" />
    <rect x="0" y="360" width="100%" height="1" fill="#000" opacity="0.1" />
    <rect x="0" y="364" width="100%" height="1" fill="#000" opacity="0.1" />
    <rect x="0" y="368" width="100%" height="1" fill="#000" opacity="0.1" />
    <rect x="0" y="372" width="100%" height="1" fill="#000" opacity="0.1" />
    <rect x="0" y="376" width="100%" height="1" fill="#000" opacity="0.1" />
    <rect x="0" y="380" width="100%" height="1" fill="#000" opacity="0.1" />
    <rect x="0" y="384" width="100%" height="1" fill="#000" opacity="0.1" />
    <rect x="0" y="388" width="100%" height="1" fill="#000" opacity="0.1" />
    <rect x="0" y="392" width="100%" height="1" fill="#000" opacity="0.1" />
    <rect x="0" y="396" width="100%" height="1" fill="#000" opacity="0.1" />
    <rect x="0" y="400" width="100%" height="1" fill="#000" opacity="0.1" />
    <rect x="0" y="404" width="100%" height="1" fill="#000" opacity="0.1" />
    <rect x="0" y="408" width="100%" height="1" fill="#000" opacity="0.1" />
    <rect x="0" y="412" width="100%" height="1" fill="#000" opacity="0.1" />
    <rect x="0" y="416" width="100%" height="1" fill="#000" opacity="0.1" />
    <rect x="0" y="420" width="100%" height="1" fill="#000" opacity="0.1" />
    <rect x="0" y="424" width="100%" height="1" fill="#000" opacity="0.1" />
    <rect x="0" y="428" width="100%" height="1" fill="#000" opacity="0.1" />
    <rect x="0" y="432" width="100%" height="1" fill="#000" opacity="0.1" />
    <rect x="0" y="436" width="100%" height="1" fill="#000" opacity="0.1" />
    <rect x="0" y="440" width="100%" height="1" fill="#000" opacity="0.1" />
    <rect x="0" y="444" width="100%" height="1" fill="#000" opacity="0.1" />
    <rect x="0" y="448" width="100%" height="1" fill="#000" opacity="0.1" />
    <rect x="0" y="452" width="100%" height="1" fill="#000" opacity="0.1" />
    <rect x="0" y="456" width="100%" height="1" fill="#000" opacity="0.1" />
    <rect x="0" y="460" width="100%" height="1" fill="#000" opacity="0.1" />
    <rect x="0" y="464" width="100%" height="1" fill="#000" opacity="0.1" />
    <rect x="0" y="468" width="100%" height="1" fill="#000" opacity="0.1" />
    <rect x="0" y="472" width="100%" height="1" fill="#000" opacity="0.1" />
    <rect x="0" y="476" width="100%" height="1" fill="#000" opacity="0.1" />
    <rect x="0" y="480" width="100%" height="1" fill="#000" opacity="0.1" />
    <rect x="0" y="484" width="100%" height="1" fill="#000" opacity="0.1" />
    <rect x="0" y="488" width="100%" height="1" fill="#000" opacity="0.1" />
    <rect x="0" y="492" width="100%" height="1" fill="#000" opacity="0.1" />
    <rect x="0" y="496" width="100%" height="1" fill="#000" opacity="0.1" />
    <rect x="0" y="500" width="100%" height="1" fill="#000" opacity="0.1" />
    <rect x="0" y="504" width="100%" height="1" fill="#000" opacity="0.1" />
    <rect x="0" y="508" width="100%" height="1" fill="#000" opacity="0.1" />
    <rect x="0" y="512" width="100%" height="1" fill="#000" opacity="0.1" />
    <rect x="0" y="516" width="100%" height="1" fill="#000" opacity="0.1" />
    <rect x="0" y="520" width="100%" height="1" fill="#000" opacity="0.1" />
    <rect x="0" y="524" width="100%" height="1" fill="#000" opacity="0.1" />
    <rect x="0" y="528" width="100%" height="1" fill="#000" opacity="0.1" />
    <rect x="0" y="532" width="100%" height="1" fill="#000" opacity="0.1" />
    <rect x="0" y="536" width="100%" height="1" fill="#000" opacity="0.1" />
    <rect x="0" y="540" width="100%" height="1" fill="#000" opacity="0.1" />
    <rect x="0" y="544" width="100%" height="1" fill="#000" opacity="0.1" />
    <rect x="0" y="548" width="100%" height="1" fill="#000" opacity="0.1" />
    <rect x="0" y="552" width="100%" height="1" fill="#000" opacity="0.1" />
    <rect x="0" y="556" width="100%" height="1" fill="#000" opacity="0.1" />
    <rect x="0" y="560" width="100%" height="1" fill="#000" opacity="0.1" />
    <rect x="0" y="564" width="100%" height="1" fill="#000" opacity="0.1" />
    <rect x="0" y="568" width="100%" height="1" fill="#000" opacity="0.1" />
    <rect x="0" y="572" width="100%" height="1" fill="#000" opacity="0.1" />
    <rect x="0" y="576" width="100%" height="1" fill="#000" opacity="0.1" />
    <rect x="0" y="580" width="100%" height="1" fill="#000" opacity="0.1" />
    <rect x="0" y="584" width="100%" height="1" fill="#000" opacity="0.1" />
    <rect x="0" y="588" width="100%" height="1" fill="#000" opacity="0.1" />
    <rect x="0" y="592" width="100%" height="1" fill="#000" opacity="0.1" />
    <rect x="0" y="596" width="100%" height="1" fill="#000" opacity="0.1" />
    <rect x="0" y="600" width="100%" height="1" fill="#000" opacity="0.1" />
    <rect x="0" y="604" width="100%" height="1" fill="#000" opacity="0.1" />
    <rect x="0" y="608" width="100%" height="1" fill="#000" opacity="0.1" />
    <rect x="0" y="612" width="100%" height="1" fill="#000" opacity="0.1" />
    <rect x="0" y="616" width="100%" height="1" fill="#000" opacity="0.1" />
    <rect x="0" y="620" width="100%" height="1" fill="#000" opacity="0.1" />
    <rect x="0" y="624" width="100%" height="1" fill="#000" opacity="0.1" />
    <rect x="0" y="628" width="100%" height="1" fill="#000" opacity="0.1" />
    <rect x="0" y="632" width="100%" height="1" fill="#000" opacity="0.1" />
    <rect x="0" y="636" width="100%" height="1" fill="#000" opacity="0.1" />
    <rect x="0" y="640" width="100%" height="1" fill="#000" opacity="0.1" />
    <rect x="0" y="644" width="100%" height="1" fill="#000" opacity="0.1" />
    <rect x="0" y="648" width="100%" height="1" fill="#000" opacity="0.1" />
    <rect x="0" y="652" width="100%" height="1" fill="#000" opacity="0.1" />
    <rect x="0" y="656" width="100%" height="1" fill="#000" opacity="0.1" />
    <rect x="0" y="660" width="100%" height="1" fill="#000" opacity="0.1" />
    <rect x="0" y="664" width="100%" height="1" fill="#000" opacity="0.1" />
    <rect x="0" y="668" width="100%" height="1" fill="#000" opacity="0.1" />
    <rect x="0" y="672" width="100%" height="1" fill="#000" opacity="0.1" />
    <rect x="0" y="676" width="100%" height="1" fill="#000" opacity="0.1" />
    <rect x="0" y="680" width="100%" height="1" fill="#000" opacity="0.1" />
    <rect x="0" y="684" width="100%" height="1" fill="#000" opacity="0.1" />
    <rect x="0" y="688" width="100%" height="1" fill="#000" opacity="0.1" />
    <rect x="0" y="692" width="100%" height="1" fill="#000" opacity="0.1" />
    <rect x="0" y="696" width="100%" height="1" fill="#000" opacity="0.1" />
    <rect x="0" y="700" width="100%" height="1" fill="#000" opacity="0.1" />
    <rect x="0" y="704" width="100%" height="1" fill="#000" opacity="0.1" />
    <rect x="0" y="708" width="100%" height="1" fill="#000" opacity="0.1" />
    <rect x="0" y="712" width="100%" height="1" fill="#000" opacity="0.1" />
    <rect x="0" y="716" width="100%" height="1" fill="#000" opacity="0.1" />
    <rect x="0" y="720" width="100%" height="1" fill="#000" opacity="0.1" />
    <rect x="0" y="724" width="100%" height="1" fill="#000" opacity="0.1" />
    <rect x="0" y="728" width="100%" height="1" fill="#000" opacity="0.1" />
    <rect x="0" y="732" width="100%" height="1" fill="#000" opacity="0.1" />
    <rect x="0" y="736" width="100%" height="1" fill="#000" opacity="0.1" />
    <rect x="0" y="740" width="100%" height="1" fill="#000" opacity="0.1" />
    <rect x="0" y="744" width="100%" height="1" fill="#000" opacity="0.1" />
    <rect x="0" y="748" width="100%" height="1" fill="#000" opacity="0.1" />
    <rect x="0" y="752" width="100%" height="1" fill="#000" opacity="0.1" />
    <rect x="0" y="756" width="100%" height="1" fill="#000" opacity="0.1" />
    <rect x="0" y="760" width="100%" height="1" fill="#000" opacity="0.1" />
    <rect x="0" y="764" width="100%" height="1" fill="#000" opacity="0.1" />
    <rect x="0" y="768" width="100%" height="1" fill="#000" opacity="0.1" />
    <rect x="0" y="772" width="100%" height="1" fill="#000" opacity="0.1" />
    <rect x="0" y="776" width="100%" height="1" fill="#000" opacity="0.1" />
    <rect x="0" y="780" width="100%" height="1" fill="#000" opacity="0.1" />
    <rect x="0" y="784" width="100%" height="1" fill="#000" opacity="0.1" />
    <rect x="0" y="788" width="100%" height="1" fill="#000" opacity="0.1" />
    <rect x="0" y="792" width="100%" height="1" fill="#000" opacity="0.1" />
    <rect x="0" y="796" width="100%" height="1" fill="#000" opacity="0.1" />
    
        <rect x="0" y="740" width="100%" height="60" fill="#000" opacity="0.7" />
        <text x="30" y="775" font-family="monospace" font-weight="bold" font-size="24" fill="#FFFFFF" letter-spacing="4">
            MEDIA-POTUSTORONNIY-DECK
        </text>
        <text x="1170" y="775" text-anchor="end" font-family="monospace" font-size="14" fill="#FFFFFF" opacity="0.7">
            GEN.ASSET.V2 // NODE
        </text>
    
    <rect width="100%" height="100%" filter="url(#noise-media-potustoronniy-deck)" opacity="0.15" pointer-events="none" />
</svg>