
<svg width="800" height="800" viewBox="0 0 800 800" xmlns="http://www.w3.org/2000/svg">
    
    <defs>
        <linearGradient id="grad-neurobattle" x1="0%" y1="0%" x2="100%" y2="100%">
            <stop offset="0%" style="stop-color:#09090b;stop-opacity:1" />
            <stop offset="100%" style="stop-color:#050505;stop-opacity:1" />
        </linearGradient>
    </defs>
    <rect width="100%" height="100%" fill="url(#grad-neurobattle)" />
    <circle cx="347" cy="109" r="107" fill="#10b981" fill-opacity="0.11164234815373675" /><circle cx="171" cy="9" r="29" fill="#10b981" fill-opacity="0.05584291964705699" /><circle cx="77" cy="162" r="28.5" fill="#10b981" fill-opacity="0.06840686583045681" /><rect x="543" y="533" width="800" height="2" fill="#3f3f46" fill-opacity="0.2899449180444208" /><rect x="795" y="364" width="2" height="800" fill="#3f3f46" fill-opacity="0.1587603603187745" /><circle cx="789" cy="310" r="67.33333333333333" stroke="#27272a" stroke-width="2" fill="none" opacity="0.40577552045560883" /><rect x="40" y="449" width="2" height="800" fill="#3f3f46" fill-opacity="0.258005270051217" /><rect x="126" y="186" width="2" height="800" fill="#3f3f46" fill-opacity="0.17159189327103377" /><circle cx="337" cy="191" r="107.33333333333333" stroke="#27272a" stroke-width="2" fill="none" opacity="0.3537316892321542" /><rect x="704" y="725" width="800" height="2" fill="#3f3f46" fill-opacity="0.22342655280663168" /><rect x="416" y="294" width="2" height="800" fill="#3f3f46" fill-opacity="0.11437100537659717" /><circle cx="791" cy="66" r="162.5" fill="#10b981" fill-opacity="0.07372867106732883" /><rect x="745" y="317" width="2" height="800" fill="#3f3f46" fill-opacity="0.17125365860629244" /><rect x="81" y="432" width="800" height="2" fill="#3f3f46" fill-opacity="0.13497253422751784" /><text x="40" y="760" font-family="monospace" font-size="24" fill="#27272a" opacity="0.5">NEUROBATTLE</text>
</svg>