
<svg width="1200" height="800" viewBox="0 0 1200 800" xmlns="http://www.w3.org/2000/svg" preserveAspectRatio="xMidYMid slice">
    
    <defs>
        <filter id="noise-proof-press-tnt-tykakya" x="0%" y="0%" width="100%" height="100%">
            <feTurbulence type="fractalNoise" baseFrequency="1.1725071581755833" numOctaves="4" result="noise"/>
            <feColorMatrix type="matrix" values="1 0 0 0 0  0 1 0 0 0  0 0 1 0 0  0 0 0 0.1 0" in="noise" result="coloredNoise"/>
            <feComposite operator="in" in="coloredNoise" in2="SourceGraphic" result="composite"/>
        </filter>
        <linearGradient id="grad-proof-press-tnt-tykakya" x1="0%" y1="0%" x2="100%" y2="100%">
            <stop offset="0%" stop-color="#0038A8" stop-opacity="0.2" />
            <stop offset="50%" stop-color="#121212" stop-opacity="0" />
            <stop offset="100%" stop-color="#FF0055" stop-opacity="0.3" />
        </linearGradient>
        <pattern id="grid-proof-press-tnt-tykakya" width="50" height="50" patternUnits="userSpaceOnUse">
             <path d="M 50 0 L 0 0 0 50" fill="none" stroke="#00FF99" stroke-width="0.5" stroke-opacity="0.2"/>
             
        </pattern>
    </defs>
    
    <rect width="100%" height="100%" fill="#121212" />
    <rect width="100%" height="100%" fill="url(#grad-proof-press-tnt-tykakya)" />
    <rect width="100%" height="100%" fill="url(#grid-proof-press-tnt-tykakya)" />
    <circle cx="34.655371573432696%" cy="52.83054607252641%" r="16.083384628485316%" fill="#00FF99" opacity="0.08977523524293232" />
    <rect x="20.105258114733974%" y="9.073759577305763%" width="5.011810391221019%" height="5.497519066089316%" fill="#00FF99" opacity="0.2886363012610341" />
    <rect x="28.26273271652193%" y="11.749327985336379%" width="24.74256678553537%" height="32.32008389972158%" fill="#00FF99" opacity="0.197657808473015" />
    <rect x="79.24287754971802%" y="35.043140533420384%" width="23.45639545419849%" height="37.63852818928522%" fill="#FFFFFF" opacity="0.21248216383390334" />
    <circle cx="38.62122119275967%" cy="6.865067041353385%" r="9.198100906049927%" fill="none" stroke="#FFFFFF" stroke-width="3.605265687317835" opacity="0.25116509334292736" />
    <circle cx="76.99191451723865%" cy="3.1074712547543193%" r="8.006103425292395%" fill="none" stroke="#0038A8" stroke-width="2.476820200194437" opacity="0.5017886565083532" />
    <circle cx="62.88026483997727%" cy="28.611455977532508%" r="15.615117805651499%" fill="#0038A8" opacity="0.19825805821293782" />
    <circle cx="31.03267488166008%" cy="66.16727580890736%" r="4.41353623886922%" fill="none" stroke="#FF0055" stroke-width="3.7191255467190647" opacity="0.24759244317895962" />
    <circle cx="55.85161350281128%" cy="98.06848726986766%" r="15.607183809026317%" fill="none" stroke="#0038A8" stroke-width="3.609873402500407" opacity="0.5184170350603918" />
    <rect x="71.81963475590538%" y="72.6015630388647%" width="2.3026440900775085%" height="34.53951696356714%" fill="#0038A8" opacity="0.08828258802023026" />
    <rect x="38.98107929991659%" y="55.00027123373027%" width="8.739170867706807%" height="27.24501820117703%" fill="#FF0055" opacity="0.0669998774928971" />
    <line x1="38.88054652035287%" y1="65.3458458980041%" x2="57.16561412174778%" y2="62.47703595317624%" stroke="#FF0055" stroke-width="1.3911436241037618" opacity="0.24516768487651616" />
    <circle cx="39.583465726658204%" cy="79.30894077691151%" r="24.18543714954093%" fill="#0038A8" opacity="0.07195461707371717" />
    <circle cx="4.906224557111249%" cy="58.91687558863021%" r="2.8250376338372356%" fill="none" stroke="#FFFFFF" stroke-width="3.3711736866935844" opacity="0.2692883580637056" />
    <rect x="33.79120238478407%" y="28.738999207261017%" width="27.253041738879908%" height="7.872605102018086%" fill="#FF0055" opacity="0.17841681277231947" />
    
                <g stroke="#FFFFFF" stroke-width="2" opacity="0.16167984387062476">
                    <line x1="890.0334509089898" y1="168.59372497405272" x2="922.5271355477412" y2="168.59372497405272" />
                    <line x1="906.2802932283655" y1="152.34688265467702" x2="906.2802932283655" y2="184.84056729342842" />
                </g>
            
    
                <g stroke="#00FF99" stroke-width="2" opacity="0.2658777376319075">
                    <line x1="585.4098601037728" y1="397.64427616972876" x2="643.1492476287757" y2="397.64427616972876" />
                    <line x1="614.2795538662742" y1="368.77458240722734" x2="614.2795538662742" y2="426.51396993223017" />
                </g>
            
    <circle cx="23.673365333744663%" cy="78.25176159688436%" r="11.711022725990995%" fill="#FF0055" opacity="0.10729532999665974" />
    <rect x="88.82988210658532%" y="63.82865278406874%" width="37.44345921133036%" height="12.218984824809231%" fill="#0038A8" opacity="0.2344211631309438" />
    <circle cx="27.367216187871264%" cy="60.803037985044575%" r="24.985072959200547%" fill="#FF0055" opacity="0.08274881061422527" />
    <circle cx="97.2117673579713%" cy="38.174007216630514%" r="1.4747091089139777%" fill="none" stroke="#00FF99" stroke-width="2.1046885876960015" opacity="0.34596794596497704" />
    
                <g stroke="#FF0055" stroke-width="2" opacity="0.6798582190460135">
                    <line x1="904.3230632453441" y1="16.491531596045505" x2="1004.0275924783458" y2="16.491531596045505" />
                    <line x1="954.175327861845" y1="-33.36073302045533" x2="954.175327861845" y2="66.34379621254634" />
                </g>
            
    <line x1="27.570140434028712%" y1="71.35084157004098%" x2="24.620271580871446%" y2="52.90520615214966%" stroke="#0038A8" stroke-width="1.4205832373542555" opacity="0.23938034254999863" />
    <rect x="48.37206564692041%" y="89.30773184570273%" width="37.01568690130085%" height="4.649773503327531%" fill="#FFFFFF" opacity="0.31250640304061245" />
    <rect x="90.70488357982121%" y="76.97839879149421%" width="28.325198890944193%" height="15.617851459065314%" fill="none" stroke="#FFFFFF" stroke-width="2.734297985894883" opacity="0.15450968197966897" />
    <rect x="20.560138319209347%" y="54.24535265587769%" width="3.74052395461176%" height="32.986388936626156%" fill="#00FF99" opacity="0.29252761825223234" />
    <rect x="27.85213447907207%" y="10.824754378595161%" width="2.0712206643738047%" height="21.006002966320143%" fill="none" stroke="#FFFFFF" stroke-width="2.942339468693677" opacity="0.42633825850331997" />
    <circle cx="69.96862797063648%" cy="62.73053750650076%" r="2.6691961154986137%" fill="#00FF99" opacity="0.09391300902135018" />
    <line x1="39.83498331143985%" y1="6.564986199666734%" x2="29.324046978097453%" y2="-10.741729513501497%" stroke="#00FF99" stroke-width="3.6029300751191844" opacity="0.35401552967169836" />
    
                <g stroke="#0038A8" stroke-width="2" opacity="0.3192510280006109">
                    <line x1="686.4736588266433" y1="770.7485541428891" x2="721.6486853097088" y2="770.7485541428891" />
                    <line x1="704.061172068176" y1="753.1610409013564" x2="704.061172068176" y2="788.3360673844219" />
                </g>
            
    <rect x="55.261706286353714%" y="83.49790487764209%" width="29.915145968939314%" height="23.85837888331933%" fill="#0038A8" opacity="0.19814456975846045" />
    <rect x="48.23368047199555%" y="63.46809795449311%" width="31.66171955192622%" height="4.520574465878843%" fill="#00FF99" opacity="0.22913040400401724" />
    <circle cx="52.747999739598484%" cy="35.63199321332573%" r="16.30415719682738%" fill="none" stroke="#FFFFFF" stroke-width="3.006598485639876" opacity="0.4624749500886304" />
    <circle cx="34.634129223073025%" cy="95.8103637637667%" r="15.760401232876257%" fill="#00FF99" opacity="0.1473512429905601" />
    <circle cx="40.99704589787596%" cy="37.35086735091253%" r="16.253371703674432%" fill="#00FF99" opacity="0.06070945400810749" />
    <rect x="0" y="0" width="100%" height="1" fill="#000" opacity="0.1" />
    <rect x="0" y="4" width="100%" height="1" fill="#000" opacity="0.1" />
    <rect x="0" y="8" width="100%" height="1" fill="#000" opacity="0.1" />
    <rect x="0" y="12" width="100%" height="1" fill="#000" opacity="0.1" />
    <rect x="0" y="16" width="100%" height="1" fill="#000" opacity="0.1" />
    <rect x="0" y="20" width="100%" height="1" fill="#000" opacity="0.1" />
    <rect x="0" y="24" width="100%" height="1" fill="#000" opacity="0.1" />
    <rect x="0" y="28" width="100%" height="1" fill="#000" opacity="0.1" />
    <rect x="0" y="32" width="100%" height="1" fill="#000" opacity="0.1" />
    <rect x="0" y="36" width="100%" height="1" fill="#000" opacity="0.1" />
    <rect x="0" y="40" width="100%" height="1" fill="#000" opacity="0.1" />
    <rect x="0" y="44" width="100%" height="1" fill="#000" opacity="0.1" />
    <rect x="0" y="48" width="100%" height="1" fill="#000" opacity="0.1" />
    <rect x="0" y="52" width="100%" height="1" fill="#000" opacity="0.1" />
    <rect x="0" y="56" width="100%" height="1" fill="#000" opacity="0.1" />
    <rect x="0" y="60" width="100%" height="1" fill="#000" opacity="0.1" />
    <rect x="0" y="64" width="100%" height="1" fill="#000" opacity="0.1" />
    <rect x="0" y="68" width="100%" height="1" fill="#000" opacity="0.1" />
    <rect x="0" y="72" width="100%" height="1" fill="#000" opacity="0.1" />
    <rect x="0" y="76" width="100%" height="1" fill="#000" opacity="0.1" />
    <rect x="0" y="80" width="100%" height="1" fill="#000" opacity="0.1" />
    <rect x="0" y="84" width="100%" height="1" fill="#000" opacity="0.1" />
    <rect x="0" y="88" width="100%" height="1" fill="#000" opacity="0.1" />
    <rect x="0" y="92" width="100%" height="1" fill="#000" opacity="0.1" />
    <rect x="0" y="96" width="100%" height="1" fill="#000" opacity="0.1" />
    <rect x="0" y="100" width="100%" height="1" fill="#000" opacity="0.1" />
    <rect x="0" y="104" width="100%" height="1" fill="#000" opacity="0.1" />
    <rect x="0" y="108" width="100%" height="1" fill="#000" opacity="0.1" />
    <rect x="0" y="112" width="100%" height="1" fill="#000" opacity="0.1" />
    <rect x="0" y="116" width="100%" height="1" fill="#000" opacity="0.1" />
    <rect x="0" y="120" width="100%" height="1" fill="#000" opacity="0.1" />
    <rect x="0" y="124" width="100%" height="1" fill="#000" opacity="0.1" />
    <rect x="0" y="128" width="100%" height="1" fill="#000" opacity="0.1" />
    <rect x="0" y="132" width="100%" height="1" fill="#000" opacity="0.1" />
    <rect x="0" y="136" width="100%" height="1" fill="#000" opacity="0.1" />
    <rect x="0" y="140" width="100%" height="1" fill="#000" opacity="0.1" />
    <rect x="0" y="144" width="100%" height="1" fill="#000" opacity="0.1" />
    <rect x="0" y="148" width="100%" height="1" fill="#000" opacity="0.1" />
    <rect x="0" y="152" width="100%" height="1" fill="#000" opacity="0.1" />
    <rect x="0" y="156" width="100%" height="1" fill="#000" opacity="0.1" />
    <rect x="0" y="160" width="100%" height="1" fill="#000" opacity="0.1" />
    <rect x="0" y="164" width="100%" height="1" fill="#000" opacity="0.1" />
    <rect x="0" y="168" width="100%" height="1" fill="#000" opacity="0.1" />
    <rect x="0" y="172" width="100%" height="1" fill="#000" opacity="0.1" />
    <rect x="0" y="176" width="100%" height="1" fill="#000" opacity="0.1" />
    <rect x="0" y="180" width="100%" height="1" fill="#000" opacity="0.1" />
    <rect x="0" y="184" width="100%" height="1" fill="#000" opacity="0.1" />
    <rect x="0" y="188" width="100%" height="1" fill="#000" opacity="0.1" />
    <rect x="0" y="192" width="100%" height="1" fill="#000" opacity="0.1" />
    <rect x="0" y="196" width="100%" height="1" fill="#000" opacity="0.1" />
    <rect x="0" y="200" width="100%" height="1" fill="#000" opacity="0.1" />
    <rect x="0" y="204" width="100%" height="1" fill="#000" opacity="0.1" />
    <rect x="0" y="208" width="100%" height="1" fill="#000" opacity="0.1" />
    <rect x="0" y="212" width="100%" height="1" fill="#000" opacity="0.1" />
    <rect x="0" y="216" width="100%" height="1" fill="#000" opacity="0.1" />
    <rect x="0" y="220" width="100%" height="1" fill="#000" opacity="0.1" />
    <rect x="0" y="224" width="100%" height="1" fill="#000" opacity="0.1" />
    <rect x="0" y="228" width="100%" height="1" fill="#000" opacity="0.1" />
    <rect x="0" y="232" width="100%" height="1" fill="#000" opacity="0.1" />
    <rect x="0" y="236" width="100%" height="1" fill="#000" opacity="0.1" />
    <rect x="0" y="240" width="100%" height="1" fill="#000" opacity="0.1" />
    <rect x="0" y="244" width="100%" height="1" fill="#000" opacity="0.1" />
    <rect x="0" y="248" width="100%" height="1" fill="#000" opacity="0.1" />
    <rect x="0" y="252" width="100%" height="1" fill="#000" opacity="0.1" />
    <rect x="0" y="256" width="100%" height="1" fill="#000" opacity="0.1" />
    <rect x="0" y="260" width="100%" height="1" fill="#000" opacity="0.1" />
    <rect x="0" y="264" width="100%" height="1" fill="#000" opacity="0.1" />
    <rect x="0" y="268" width="100%" height="1" fill="#000" opacity="0.1" />
    <rect x="0" y="272" width="100%" height="1" fill="#000" opacity="0.1" />
    <rect x="0" y="276" width="100%" height="1" fill="#000" opacity="0.1" />
    <rect x="0" y="280" width="100%" height="1" fill="#000" opacity="0.1" />
    <rect x="0" y="284" width="100%" height="1" fill="#000" opacity="0.1" />
    <rect x="0" y="288" width="100%" height="1" fill="#000" opacity="0.1" />
    <rect x="0" y="292" width="100%" height="1" fill="#000" opacity="0.1" />
    <rect x="0" y="296" width="100%" height="1" fill="#000" opacity="0.1" />
    <rect x="0" y="300" width="100%" height="1" fill="#000" opacity="0.1" />
    <rect x="0" y="304" width="100%" height="1" fill="#000" opacity="0.1" />
    <rect x="0" y="308" width="100%" height="1" fill="#000" opacity="0.1" />
    <rect x="0" y="312" width="100%" height="1" fill="#000" opacity="0.1" />
    <rect x="0" y="316" width="100%" height="1" fill="#000" opacity="0.1" />
    <rect x="0" y="320" width="100%" height="1" fill="#000" opacity="0.1" />
    <rect x="0" y="324" width="100%" height="1" fill="#000" opacity="0.1" />
    <rect x="0" y="328" width="100%" height="1" fill="#000" opacity="0.1" />
    <rect x="0" y="332" width="100%" height="1" fill="#000" opacity="0.1" />
    <rect x="0" y="336" width="100%" height="1" fill="#000" opacity="0.1" />
    <rect x="0" y="340" width="100%" height="1" fill="#000" opacity="0.1" />
    <rect x="0" y="344" width="100%" height="1" fill="#000" opacity="0.1" />
    <rect x="0" y="348" width="100%" height="1" fill="#000" opacity="0.1" />
    <rect x="0" y="352" width="100%" height="1" fill="#000" opacity="0.1" />
    <rect x="0" y="356" width="100%" height="1" fill="#000" opacity="0.1" />
    <rect x="0" y="360" width="100%" height="1" fill="#000" opacity="0.1" />
    <rect x="0" y="364" width="100%" height="1" fill="#000" opacity="0.1" />
    <rect x="0" y="368" width="100%" height="1" fill="#000" opacity="0.1" />
    <rect x="0" y="372" width="100%" height="1" fill="#000" opacity="0.1" />
    <rect x="0" y="376" width="100%" height="1" fill="#000" opacity="0.1" />
    <rect x="0" y="380" width="100%" height="1" fill="#000" opacity="0.1" />
    <rect x="0" y="384" width="100%" height="1" fill="#000" opacity="0.1" />
    <rect x="0" y="388" width="100%" height="1" fill="#000" opacity="0.1" />
    <rect x="0" y="392" width="100%" height="1" fill="#000" opacity="0.1" />
    <rect x="0" y="396" width="100%" height="1" fill="#000" opacity="0.1" />
    <rect x="0" y="400" width="100%" height="1" fill="#000" opacity="0.1" />
    <rect x="0" y="404" width="100%" height="1" fill="#000" opacity="0.1" />
    <rect x="0" y="408" width="100%" height="1" fill="#000" opacity="0.1" />
    <rect x="0" y="412" width="100%" height="1" fill="#000" opacity="0.1" />
    <rect x="0" y="416" width="100%" height="1" fill="#000" opacity="0.1" />
    <rect x="0" y="420" width="100%" height="1" fill="#000" opacity="0.1" />
    <rect x="0" y="424" width="100%" height="1" fill="#000" opacity="0.1" />
    <rect x="0" y="428" width="100%" height="1" fill="#000" opacity="0.1" />
    <rect x="0" y="432" width="100%" height="1" fill="#000" opacity="0.1" />
    <rect x="0" y="436" width="100%" height="1" fill="#000" opacity="0.1" />
    <rect x="0" y="440" width="100%" height="1" fill="#000" opacity="0.1" />
    <rect x="0" y="444" width="100%" height="1" fill="#000" opacity="0.1" />
    <rect x="0" y="448" width="100%" height="1" fill="#000" opacity="0.1" />
    <rect x="0" y="452" width="100%" height="1" fill="#000" opacity="0.1" />
    <rect x="0" y="456" width="100%" height="1" fill="#000" opacity="0.1" />
    <rect x="0" y="460" width="100%" height="1" fill="#000" opacity="0.1" />
    <rect x="0" y="464" width="100%" height="1" fill="#000" opacity="0.1" />
    <rect x="0" y="468" width="100%" height="1" fill="#000" opacity="0.1" />
    <rect x="0" y="472" width="100%" height="1" fill="#000" opacity="0.1" />
    <rect x="0" y="476" width="100%" height="1" fill="#000" opacity="0.1" />
    <rect x="0" y="480" width="100%" height="1" fill="#000" opacity="0.1" />
    <rect x="0" y="484" width="100%" height="1" fill="#000" opacity="0.1" />
    <rect x="0" y="488" width="100%" height="1" fill="#000" opacity="0.1" />
    <rect x="0" y="492" width="100%" height="1" fill="#000" opacity="0.1" />
    <rect x="0" y="496" width="100%" height="1" fill="#000" opacity="0.1" />
    <rect x="0" y="500" width="100%" height="1" fill="#000" opacity="0.1" />
    <rect x="0" y="504" width="100%" height="1" fill="#000" opacity="0.1" />
    <rect x="0" y="508" width="100%" height="1" fill="#000" opacity="0.1" />
    <rect x="0" y="512" width="100%" height="1" fill="#000" opacity="0.1" />
    <rect x="0" y="516" width="100%" height="1" fill="#000" opacity="0.1" />
    <rect x="0" y="520" width="100%" height="1" fill="#000" opacity="0.1" />
    <rect x="0" y="524" width="100%" height="1" fill="#000" opacity="0.1" />
    <rect x="0" y="528" width="100%" height="1" fill="#000" opacity="0.1" />
    <rect x="0" y="532" width="100%" height="1" fill="#000" opacity="0.1" />
    <rect x="0" y="536" width="100%" height="1" fill="#000" opacity="0.1" />
    <rect x="0" y="540" width="100%" height="1" fill="#000" opacity="0.1" />
    <rect x="0" y="544" width="100%" height="1" fill="#000" opacity="0.1" />
    <rect x="0" y="548" width="100%" height="1" fill="#000" opacity="0.1" />
    <rect x="0" y="552" width="100%" height="1" fill="#000" opacity="0.1" />
    <rect x="0" y="556" width="100%" height="1" fill="#000" opacity="0.1" />
    <rect x="0" y="560" width="100%" height="1" fill="#000" opacity="0.1" />
    <rect x="0" y="564" width="100%" height="1" fill="#000" opacity="0.1" />
    <rect x="0" y="568" width="100%" height="1" fill="#000" opacity="0.1" />
    <rect x="0" y="572" width="100%" height="1" fill="#000" opacity="0.1" />
    <rect x="0" y="576" width="100%" height="1" fill="#000" opacity="0.1" />
    <rect x="0" y="580" width="100%" height="1" fill="#000" opacity="0.1" />
    <rect x="0" y="584" width="100%" height="1" fill="#000" opacity="0.1" />
    <rect x="0" y="588" width="100%" height="1" fill="#000" opacity="0.1" />
    <rect x="0" y="592" width="100%" height="1" fill="#000" opacity="0.1" />
    <rect x="0" y="596" width="100%" height="1" fill="#000" opacity="0.1" />
    <rect x="0" y="600" width="100%" height="1" fill="#000" opacity="0.1" />
    <rect x="0" y="604" width="100%" height="1" fill="#000" opacity="0.1" />
    <rect x="0" y="608" width="100%" height="1" fill="#000" opacity="0.1" />
    <rect x="0" y="612" width="100%" height="1" fill="#000" opacity="0.1" />
    <rect x="0" y="616" width="100%" height="1" fill="#000" opacity="0.1" />
    <rect x="0" y="620" width="100%" height="1" fill="#000" opacity="0.1" />
    <rect x="0" y="624" width="100%" height="1" fill="#000" opacity="0.1" />
    <rect x="0" y="628" width="100%" height="1" fill="#000" opacity="0.1" />
    <rect x="0" y="632" width="100%" height="1" fill="#000" opacity="0.1" />
    <rect x="0" y="636" width="100%" height="1" fill="#000" opacity="0.1" />
    <rect x="0" y="640" width="100%" height="1" fill="#000" opacity="0.1" />
    <rect x="0" y="644" width="100%" height="1" fill="#000" opacity="0.1" />
    <rect x="0" y="648" width="100%" height="1" fill="#000" opacity="0.1" />
    <rect x="0" y="652" width="100%" height="1" fill="#000" opacity="0.1" />
    <rect x="0" y="656" width="100%" height="1" fill="#000" opacity="0.1" />
    <rect x="0" y="660" width="100%" height="1" fill="#000" opacity="0.1" />
    <rect x="0" y="664" width="100%" height="1" fill="#000" opacity="0.1" />
    <rect x="0" y="668" width="100%" height="1" fill="#000" opacity="0.1" />
    <rect x="0" y="672" width="100%" height="1" fill="#000" opacity="0.1" />
    <rect x="0" y="676" width="100%" height="1" fill="#000" opacity="0.1" />
    <rect x="0" y="680" width="100%" height="1" fill="#000" opacity="0.1" />
    <rect x="0" y="684" width="100%" height="1" fill="#000" opacity="0.1" />
    <rect x="0" y="688" width="100%" height="1" fill="#000" opacity="0.1" />
    <rect x="0" y="692" width="100%" height="1" fill="#000" opacity="0.1" />
    <rect x="0" y="696" width="100%" height="1" fill="#000" opacity="0.1" />
    <rect x="0" y="700" width="100%" height="1" fill="#000" opacity="0.1" />
    <rect x="0" y="704" width="100%" height="1" fill="#000" opacity="0.1" />
    <rect x="0" y="708" width="100%" height="1" fill="#000" opacity="0.1" />
    <rect x="0" y="712" width="100%" height="1" fill="#000" opacity="0.1" />
    <rect x="0" y="716" width="100%" height="1" fill="#000" opacity="0.1" />
    <rect x="0" y="720" width="100%" height="1" fill="#000" opacity="0.1" />
    <rect x="0" y="724" width="100%" height="1" fill="#000" opacity="0.1" />
    <rect x="0" y="728" width="100%" height="1" fill="#000" opacity="0.1" />
    <rect x="0" y="732" width="100%" height="1" fill="#000" opacity="0.1" />
    <rect x="0" y="736" width="100%" height="1" fill="#000" opacity="0.1" />
    <rect x="0" y="740" width="100%" height="1" fill="#000" opacity="0.1" />
    <rect x="0" y="744" width="100%" height="1" fill="#000" opacity="0.1" />
    <rect x="0" y="748" width="100%" height="1" fill="#000" opacity="0.1" />
    <rect x="0" y="752" width="100%" height="1" fill="#000" opacity="0.1" />
    <rect x="0" y="756" width="100%" height="1" fill="#000" opacity="0.1" />
    <rect x="0" y="760" width="100%" height="1" fill="#000" opacity="0.1" />
    <rect x="0" y="764" width="100%" height="1" fill="#000" opacity="0.1" />
    <rect x="0" y="768" width="100%" height="1" fill="#000" opacity="0.1" />
    <rect x="0" y="772" width="100%" height="1" fill="#000" opacity="0.1" />
    <rect x="0" y="776" width="100%" height="1" fill="#000" opacity="0.1" />
    <rect x="0" y="780" width="100%" height="1" fill="#000" opacity="0.1" />
    <rect x="0" y="784" width="100%" height="1" fill="#000" opacity="0.1" />
    <rect x="0" y="788" width="100%" height="1" fill="#000" opacity="0.1" />
    <rect x="0" y="792" width="100%" height="1" fill="#000" opacity="0.1" />
    <rect x="0" y="796" width="100%" height="1" fill="#000" opacity="0.1" />
    
        <rect x="0" y="740" width="100%" height="60" fill="#000" opacity="0.7" />
        <text x="30" y="775" font-family="monospace" font-weight="bold" font-size="24" fill="#FFFFFF" letter-spacing="4">
            PROOF-PRESS-TNT-TYKAKYA
        </text>
        <text x="1170" y="775" text-anchor="end" font-family="monospace" font-size="14" fill="#FFFFFF" opacity="0.7">
            GEN.ASSET.V2 // NODE
        </text>
    
    <rect width="100%" height="100%" filter="url(#noise-proof-press-tnt-tykakya)" opacity="0.15" pointer-events="none" />
</svg>